<svg width="17" height="17" viewBox="0 0 17 17" fill="none" xmlns="http://www.w3.org/2000/svg">
<path d="M0.732102 0.707107C1.12263 0.316579 1.75579 0.316586 2.14632 0.707107L15.5813 14.1421C15.9719 14.5327 15.9719 15.1658 15.5813 15.5563C15.1908 15.9469 14.5577 15.9469 14.1671 15.5563L0.732102 2.12132C0.341581 1.7308 0.341574 1.09763 0.732102 0.707107Z" fill="white"/>
<path d="M0.781539 14.0781C0.349911 14.5097 0.327749 15.1874 0.732073 15.5917C1.13632 15.9959 1.81398 15.9738 2.24561 15.5422L15.5318 2.25599C15.9634 1.82435 15.9856 1.1467 15.5813 0.742451C15.177 0.338127 14.4993 0.360273 14.0677 0.791917L0.781539 14.0781Z" fill="white"/>
</svg>
