<svg width="21" height="16" viewBox="0 0 21 16" fill="none" xmlns="http://www.w3.org/2000/svg">
<path d="M0 1C0 0.44771 0.44772 0 1 0H20C20.5523 0 21 0.44771 21 1C21 1.55229 20.5523 2 20 2H1C0.44772 2 0 1.55229 0 1Z" fill="#055F4F"/>
<path d="M0 7.99986C0 7.44756 0.44772 6.99976 1 6.99976L12 7.00006C12.5523 7.00006 13 7.44776 13 8.00006C13 8.55236 12.5523 9.00006 12 9.00006L1 8.99986C0.44772 8.99986 0 8.55206 0 7.99986Z" fill="#055F4F"/>
<path d="M1.10526 13.9998C0.494848 13.9998 0 14.4475 0 14.9998C0 15.552 0.494848 15.9997 1.10526 15.9997H19.8947C20.5052 15.9997 21 15.552 21 14.9998C21 14.4475 20.5052 13.9998 19.8947 13.9998H1.10526Z" fill="#055F4F"/>
</svg>
