<svg width="284" height="109" viewBox="0 0 284 109" fill="none" xmlns="http://www.w3.org/2000/svg">
<rect width="18" height="18" fill="#B0D7D0"/>
<rect y="61" width="18" height="18" fill="#B0D7D0"/>
<rect y="30" width="18" height="18" fill="#B0D7D0"/>
<rect y="91" width="18" height="18" fill="#B0D7D0"/>
<rect x="76" width="18" height="18" fill="#B0D7D0"/>
<rect x="76" y="61" width="18" height="18" fill="#B0D7D0"/>
<rect x="76" y="30" width="18" height="18" fill="#B0D7D0"/>
<rect x="76" y="91" width="18" height="18" fill="#B0D7D0"/>
<rect x="38" width="18" height="18" fill="#B0D7D0"/>
<rect x="38" y="61" width="18" height="18" fill="#B0D7D0"/>
<rect x="38" y="30" width="18" height="18" fill="#B0D7D0"/>
<rect x="38" y="91" width="18" height="18" fill="#B0D7D0"/>
<rect x="114" width="18" height="18" fill="#B0D7D0"/>
<rect x="114" y="61" width="18" height="18" fill="#B0D7D0"/>
<rect x="114" y="30" width="18" height="18" fill="#B0D7D0"/>
<rect x="114" y="91" width="18" height="18" fill="#B0D7D0"/>
<rect x="152" width="18" height="18" fill="#B0D7D0"/>
<rect x="152" y="61" width="18" height="18" fill="#B0D7D0"/>
<rect x="152" y="30" width="18" height="18" fill="#B0D7D0"/>
<rect x="152" y="91" width="18" height="18" fill="#B0D7D0"/>
<rect x="228" width="18" height="18" fill="#B0D7D0"/>
<rect x="228" y="61" width="18" height="18" fill="#B0D7D0"/>
<rect x="228" y="30" width="18" height="18" fill="#B0D7D0"/>
<rect x="228" y="91" width="18" height="18" fill="#B0D7D0"/>
<rect x="190" width="18" height="18" fill="#B0D7D0"/>
<rect x="190" y="61" width="18" height="18" fill="#B0D7D0"/>
<rect x="190" y="30" width="18" height="18" fill="#B0D7D0"/>
<rect x="190" y="91" width="18" height="18" fill="#B0D7D0"/>
<rect x="266" width="18" height="18" fill="#B0D7D0"/>
<rect x="266" y="61" width="18" height="18" fill="#B0D7D0"/>
<rect x="266" y="30" width="18" height="18" fill="#B0D7D0"/>
<rect x="266" y="91" width="18" height="18" fill="#B0D7D0"/>
</svg>
