<svg width="129" height="120" viewBox="0 0 129 120" fill="none" xmlns="http://www.w3.org/2000/svg">
<path d="M64.9115 118C105.728 100.009 147.756 39.947 116.688 11.4382C85.6202 -17.0706 64.9115 28.1668 64.9115 28.1668C64.9115 28.1668 44.2028 -17.0706 13.1348 11.4382C-17.9332 39.947 24.0947 100.009 64.9115 118Z" fill="#6ECFBE"/>
<path d="M64.9115 95.1624C89.6538 84.2578 115.137 47.8378 96.2998 30.5594C77.4628 13.281 64.9115 40.7004 64.9115 40.7004C64.9115 40.7004 52.3502 13.2709 33.5232 30.5594C14.6862 47.8378 40.1692 84.2578 64.9115 95.1624Z" fill="white"/>
<path d="M72.8787 54.3744C72.8787 54.3744 64.0908 34.0822 70.4365 31.3739C76.7722 28.6655 85.6102 44.3148 85.1798 63.8434" stroke="black" stroke-width="3" stroke-linejoin="round"/>
<path d="M16.548 75.9087C1.23421 53.122 -4.22071 27.3521 13.1349 11.4279C44.203 -17.081 64.9116 28.1564 64.9116 28.1564C64.9116 28.1564 85.6203 -17.081 116.688 11.4279C147.756 39.9367 105.728 99.9986 64.9116 117.99C53.9618 113.164 42.9218 105.303 33.2331 95.8445C29.9601 92.6474 29.3596 87.5667 31.7517 83.6366C35.8254 76.937 44.7635 67.8346 63.6705 65.9C63.6705 65.9 36.9064 44.0501 41.6106 34.8967C46.3149 25.7433 74.5303 53.4071 77.5931 61.3081C77.5931 61.3081 101.555 66.6331 99.4728 81.4882C98.6521 87.3122 87.8223 92.0976 78.614 85.0213" stroke="black" stroke-width="3" stroke-linecap="round" stroke-linejoin="round"/>
</svg>
