<svg width="106" height="88" viewBox="0 0 106 88" fill="none" xmlns="http://www.w3.org/2000/svg">
<path d="M48.5 34.0002C48.5 63.8236 83.8234 88 54 88C24.1766 88 0 63.8233 0 34C0 4.17659 60.6766 0.499756 90.5 0.499756C120.323 0.499756 48.5 4.17683 48.5 34.0002Z" fill="#6ECFBE"/>
<path d="M101.608 13.5531H53.6798L45.2383 1.77465C44.8727 1.26123 44.3903 0.842165 43.8308 0.552053C43.2713 0.261942 42.6508 0.109115 42.0206 0.106201H25.5347C24.8218 0.107073 24.1222 0.29931 23.5089 0.662843C22.8956 1.02638 22.3912 1.54788 22.0482 2.1729C21.7053 2.79792 21.5364 3.50354 21.5592 4.2161C21.5821 4.92866 21.7957 5.62204 22.178 6.22383L28.1169 15.4599L19.7945 26.5431C19.3519 27.1333 19.0823 27.8351 19.0161 28.5698C18.9498 29.3046 19.0895 30.0433 19.4194 30.7031C19.7493 31.363 20.2565 31.9179 20.884 32.3058C21.5116 32.6936 22.2348 32.8991 22.9725 32.8991H25.7135L25.6738 76.9539C25.6738 78.0075 26.0923 79.0179 26.8373 79.7629C27.5823 80.5079 28.5927 80.9264 29.6463 80.9264H101.608C102.664 80.9275 103.677 80.5099 104.425 79.7653C105.173 79.0206 105.596 78.0097 105.6 76.9539V17.5256C105.596 16.4698 105.173 15.4589 104.425 14.7142C103.677 13.9696 102.664 13.552 101.608 13.5531ZM25.5347 4.07869H42.0206L48.7936 13.5531H31.6126L25.5347 4.07869ZM22.9725 28.9266L31.5332 17.5256H82.3214L73.7607 28.9266H22.9725ZM84.3077 76.9539H29.6463L29.686 32.8991H73.7607C74.3774 32.8991 74.9857 32.7555 75.5373 32.4797C76.0889 32.2039 76.5687 31.8034 76.9387 31.3101L84.3077 21.498V76.9539ZM101.608 76.9539H88.2802V17.5256H101.628L101.608 76.9539Z" fill="black"/>
</svg>
