<svg width="145" height="117" viewBox="0 0 145 117" fill="none" xmlns="http://www.w3.org/2000/svg">
<path d="M123.816 48.7237C119.584 55.254 113.236 61.764 103.808 65.7187C103.808 65.7187 115.272 46.7666 109.242 44.3025C103.202 41.8385 100.47 56.0043 88.6273 64.5931C77.2817 72.8067 73.7847 89.7814 72.8607 104.86H72.2845C71.3705 89.7814 67.8735 72.8067 56.5279 64.5931C44.6856 56.0043 41.9436 41.8385 35.9032 44.3025C29.8728 46.7666 41.3376 65.7187 41.3376 65.7187C31.9094 61.764 25.5611 55.254 21.3289 48.7237C23.1867 21.4972 45.4208 0 72.5726 0C99.7245 0 121.959 21.4972 123.816 48.7237Z" fill="#6ECFBE"/>
<path d="M13.1228 27.6726C13.1228 27.6726 16.749 55.3959 41.3377 65.7187C41.3377 65.7187 29.8729 46.7768 35.9033 44.3127C41.9338 41.8486 44.6758 56.0145 56.5181 64.5931C70.5162 74.7333 72.5628 98.218 72.5628 115" stroke="black" stroke-width="3" stroke-linecap="round" stroke-linejoin="round"/>
<path d="M5.57211 36.1396C5.57211 36.1396 3.913 59.0869 34.691 72.7965" stroke="black" stroke-width="3" stroke-linecap="round" stroke-linejoin="round"/>
<path d="M2.10498 52.6174C2.10498 52.6174 4.97614 74.642 33.9461 81.8821" stroke="black" stroke-width="3" stroke-linecap="round" stroke-linejoin="round"/>
<path d="M3.91309 72.3301C3.91309 72.3301 12.467 87.1246 32.585 90.5013C45.987 92.7525 44.3577 114.99 44.3577 114.99" stroke="black" stroke-width="3" stroke-linecap="round" stroke-linejoin="round"/>
<path d="M132.023 27.6726C132.023 27.6726 128.396 55.3959 103.808 65.7187C103.808 65.7187 115.272 46.7768 109.242 44.3127C103.212 41.8486 100.47 56.0145 88.6272 64.5931C74.6291 74.7333 72.5825 98.218 72.5825 115" stroke="black" stroke-width="3" stroke-linecap="round" stroke-linejoin="round"/>
<path d="M139.573 36.1396C139.573 36.1396 141.232 59.0869 110.454 72.7965" stroke="black" stroke-width="3" stroke-linecap="round" stroke-linejoin="round"/>
<path d="M143.04 52.6174C143.04 52.6174 140.169 74.642 111.199 81.8821" stroke="black" stroke-width="3" stroke-linecap="round" stroke-linejoin="round"/>
<path d="M141.232 72.3301C141.232 72.3301 132.678 87.1246 112.56 90.5013C99.1581 92.7525 100.787 114.99 100.787 114.99" stroke="black" stroke-width="3" stroke-linecap="round" stroke-linejoin="round"/>
<path d="M72.5728 98.2385V39.9932" stroke="black" stroke-width="3" stroke-linecap="round" stroke-linejoin="round"/>
<path d="M72.5727 39.8408C72.5727 39.8408 61.3662 20.6961 55.1172 28.3823C48.8682 36.0585 63.224 40.9258 72.5727 39.8408Z" fill="white"/>
<path d="M72.5728 39.8408C72.5728 39.8408 83.7792 20.6961 90.0282 28.3823C96.2772 36.0585 81.9214 40.9258 72.5728 39.8408Z" fill="white"/>
<path d="M72.5727 39.8408C72.5727 39.8408 61.3662 20.6961 55.1172 28.3823C48.8682 36.0585 63.224 40.9258 72.5727 39.8408Z" stroke="black" stroke-width="3" stroke-linecap="round" stroke-linejoin="round"/>
<path d="M72.5728 39.8408C72.5728 39.8408 83.7792 20.6961 90.0282 28.3823C96.2772 36.0585 81.9214 40.9258 72.5728 39.8408Z" stroke="black" stroke-width="3" stroke-linecap="round" stroke-linejoin="round"/>
</svg>
