<svg width="103" height="111" viewBox="0 0 103 111" fill="none" xmlns="http://www.w3.org/2000/svg">
<path d="M82.9242 29.4195C51.2117 30.9547 -10.551 42.1824 23.9479 109H11.1875C5.47083 109 2.68056 104.057 2 101.586V29.4195L82.9242 29.4195C92.9698 28.9332 100 29.4195 100 29.4195L82.9242 29.4195Z" fill="#6ECFBE"/>
<path d="M19.1997 30.8893V14.3007L29.4183 4.8938V30.8893H19.1997Z" stroke="black" stroke-width="3" stroke-miterlimit="10"/>
<path d="M80.3592 30.8893V14.3007L70.1304 4.8938V30.8893H80.3592Z" stroke="black" stroke-width="3" stroke-miterlimit="10"/>
<path d="M65.8961 2H33.6525C31.3141 2 29.4185 3.77871 29.4185 5.97287C29.4185 8.16702 31.3141 9.94573 33.6525 9.94573H65.8961C68.2345 9.94573 70.1301 8.16702 70.1301 5.97287C70.1301 3.77871 68.2345 2 65.8961 2Z" stroke="black" stroke-width="3" stroke-miterlimit="10"/>
<path d="M24.6147 92.0294L39.1692 71.6112L44.3599 79.0221L57.1841 61.2206L77.886 92.0294H24.6147Z" stroke="black" stroke-width="3" stroke-miterlimit="10"/>
<path d="M34.7316 55.7007C37.1375 55.7007 39.0878 53.8707 39.0878 51.6132C39.0878 49.3558 37.1375 47.5258 34.7316 47.5258C32.3258 47.5258 30.3755 49.3558 30.3755 51.6132C30.3755 53.8707 32.3258 55.7007 34.7316 55.7007Z" stroke="black" stroke-width="3" stroke-miterlimit="10"/>
<path d="M6.61003 30.8893H96.247C98.8627 30.8893 100.98 32.8757 100.98 35.3301V99.2588C100.98 104.645 96.3284 109 90.5982 109H11.7397C6.10114 109 1.53125 104.712 1.53125 99.4212V35.6548C1.53125 33.0285 3.80093 30.8893 6.61003 30.8893Z" stroke="black" stroke-width="3" stroke-miterlimit="10"/>
</svg>
