<svg width="27" height="27" viewBox="0 0 27 27" fill="none" xmlns="http://www.w3.org/2000/svg">
<path d="M13.3471 0C6.14481 0 0.306152 5.83972 0.306152 13.041C0.306152 20.2433 6.14481 26.0809 13.3471 26.0809C20.5495 26.0809 26.3871 20.2433 26.3871 13.041C26.3871 5.83972 20.5489 0 13.3471 0ZM19.9161 10.4116C19.923 10.5525 19.9256 10.6939 19.9256 10.8369C19.9256 15.18 16.62 20.1872 10.5753 20.1872C8.71964 20.1872 6.99161 19.6433 5.53738 18.7112C5.79475 18.7414 6.05584 18.7568 6.32116 18.7568C7.86119 18.7568 9.27835 18.2314 10.4027 17.3502C8.96484 17.3232 7.75157 16.3726 7.33319 15.0672C7.53338 15.1064 7.73939 15.126 7.95122 15.126C8.25096 15.126 8.54117 15.0868 8.81709 15.011C7.31307 14.7092 6.18029 13.3799 6.18029 11.7891C6.18029 11.7748 6.18029 11.761 6.18082 11.7467C6.62355 11.9929 7.13036 12.1407 7.66948 12.1582C6.78719 11.5677 6.2073 10.5631 6.2073 9.42235C6.2073 8.82021 6.36935 8.25515 6.65215 7.77005C8.2732 9.75811 10.695 11.0667 13.4266 11.2033C13.3704 10.9634 13.3413 10.7119 13.3413 10.4545C13.3413 8.64015 14.8125 7.16844 16.6279 7.16844C17.5732 7.16844 18.4269 7.56775 19.0264 8.2059C19.7752 8.0592 20.4785 7.78488 21.1135 7.40834C20.8672 8.17624 20.3466 8.82021 19.6677 9.2264C20.3334 9.14697 20.9668 8.97008 21.5557 8.709C21.1161 9.36939 20.5585 9.94823 19.9161 10.4116Z" fill="white"/>
</svg>
