<svg width="27" height="27" viewBox="0 0 27 27" fill="none" xmlns="http://www.w3.org/2000/svg">
<path d="M17.3789 6.8927H9.92717C9.2851 6.89344 8.66953 7.14883 8.21552 7.60285C7.7615 8.05686 7.50611 8.67243 7.50537 9.3145V16.7662C7.50609 17.4083 7.76147 18.0239 8.21549 18.4779C8.66951 18.9319 9.28509 19.1873 9.92717 19.188H17.3789C18.0209 19.1873 18.6365 18.9319 19.0905 18.4779C19.5446 18.0239 19.7999 17.4083 19.8007 16.7662V9.3145C19.7999 8.67243 19.5445 8.05686 19.0905 7.60285C18.6365 7.14883 18.0209 6.89344 17.3789 6.8927ZM13.653 16.7662C12.9161 16.7662 12.1958 16.5477 11.583 16.1383C10.9703 15.7289 10.4928 15.147 10.2108 14.4662C9.92878 13.7854 9.855 13.0362 9.99876 12.3135C10.1425 11.5907 10.4974 10.9268 11.0184 10.4058C11.5395 9.88471 12.2034 9.52985 12.9261 9.38609C13.6489 9.24233 14.398 9.31611 15.0788 9.59811C15.7596 9.88011 16.3415 10.3577 16.7509 10.9704C17.1603 11.5831 17.3789 12.3034 17.3789 13.0403C17.3789 14.0285 16.9863 14.9762 16.2876 15.6749C15.5889 16.3736 14.6412 16.7662 13.653 16.7662ZM17.6147 9.98632C17.4305 9.98632 17.2504 9.93169 17.0972 9.82934C16.944 9.72699 16.8246 9.58151 16.7541 9.41131C16.6836 9.24111 16.6652 9.05382 16.7011 8.87314C16.7371 8.69245 16.8258 8.52648 16.956 8.39621C17.0863 8.26595 17.2523 8.17723 17.433 8.14129C17.6136 8.10535 17.8009 8.1238 17.9711 8.1943C18.1413 8.2648 18.2868 8.38419 18.3892 8.53736C18.4915 8.69054 18.5461 8.87063 18.5461 9.05486C18.5461 9.30189 18.448 9.53882 18.2733 9.7135C18.0986 9.88818 17.8617 9.98632 17.6147 9.98632Z" fill="white"/>
<path d="M13.6528 10.6185C13.1738 10.6185 12.7055 10.7606 12.3073 11.0267C11.909 11.2928 11.5986 11.671 11.4153 12.1135C11.232 12.5561 11.184 13.043 11.2775 13.5128C11.3709 13.9826 11.6016 14.4141 11.9403 14.7528C12.279 15.0915 12.7105 15.3221 13.1803 15.4156C13.6501 15.509 14.137 15.4611 14.5795 15.2778C15.0221 15.0945 15.4003 14.7841 15.6664 14.3858C15.9325 13.9875 16.0746 13.5193 16.0746 13.0403C16.0738 12.3983 15.8184 11.7827 15.3644 11.3287C14.9104 10.8747 14.2948 10.6193 13.6528 10.6185Z" fill="white"/>
<path d="M13.6533 0C11.0741 0 8.55286 0.76481 6.40837 2.19771C4.26387 3.63062 2.59245 5.66726 1.60544 8.05009C0.618443 10.4329 0.360199 13.0549 0.863368 15.5845C1.36654 18.1141 2.60852 20.4377 4.43226 22.2615C6.256 24.0852 8.57959 25.3272 11.1092 25.8303C13.6388 26.3335 16.2608 26.0753 18.6436 25.0883C21.0265 24.1013 23.0631 22.4298 24.496 20.2854C25.9289 18.1409 26.6937 15.6196 26.6937 13.0405C26.6937 9.58191 25.3198 6.26502 22.8743 3.81946C20.4287 1.3739 17.1118 0 13.6533 0ZM21.1049 16.7663C21.1049 17.7545 20.7124 18.7021 20.0137 19.4009C19.3149 20.0996 18.3673 20.4922 17.3791 20.4922H9.92741C8.93926 20.4922 7.99157 20.0996 7.29284 19.4009C6.59411 18.7021 6.20157 17.7545 6.20157 16.7663V9.31461C6.20157 8.32646 6.59411 7.37877 7.29284 6.68004C7.99157 5.98131 8.93926 5.58877 9.92741 5.58877H17.3791C18.3673 5.58877 19.3149 5.98131 20.0137 6.68004C20.7124 7.37877 21.1049 8.32646 21.1049 9.31461V16.7663Z" fill="white"/>
</svg>
