<svg width="27" height="27" viewBox="0 0 27 27" fill="none" xmlns="http://www.w3.org/2000/svg">
<path fill-rule="evenodd" clip-rule="evenodd" d="M13.9594 0C21.1566 0 26.9999 5.84325 26.9999 13.0405C26.9999 20.2377 21.1566 26.0809 13.9594 26.0809C6.76219 26.0809 0.918945 20.2377 0.918945 13.0405C0.918945 5.84325 6.76219 0 13.9594 0ZM21.7692 9.11701C21.5817 8.41563 21.0294 7.8634 20.3281 7.67594C19.0568 7.33526 13.9594 7.33526 13.9594 7.33526C13.9594 7.33526 8.86206 7.33526 7.59072 7.67594C6.88954 7.8634 6.3371 8.41563 6.14965 9.11701C5.80912 10.3882 5.80912 13.0406 5.80912 13.0406C5.80912 13.0406 5.80912 15.6928 6.14965 16.9639C6.3371 17.6653 6.88954 18.2177 7.59072 18.4051C8.86206 18.7457 13.9594 18.7457 13.9594 18.7457C13.9594 18.7457 19.0568 18.7457 20.3281 18.4051C21.0294 18.2177 21.5817 17.6653 21.7692 16.9639C22.1097 15.6928 22.1097 13.0406 22.1097 13.0406C22.1097 13.0406 22.1097 10.3882 21.7692 9.11701ZM12.3293 15.4857V10.5954L16.5642 13.0406L12.3293 15.4857Z" fill="white"/>
</svg>
