<svg width="27" height="27" viewBox="0 0 27 27" fill="none" xmlns="http://www.w3.org/2000/svg">
<path d="M13.0405 26.0809C20.2425 26.0809 26.0809 20.2425 26.0809 13.0405C26.0809 5.83841 20.2425 0 13.0405 0C5.83841 0 0 5.83841 0 13.0405C0 20.2425 5.83841 26.0809 13.0405 26.0809Z" fill="white"/>
<path d="M17.9305 26.0809V16.3006H21.1906L22.0056 12.2254H17.9305V10.5954C17.9305 8.96531 18.7471 8.15028 20.3756 8.15028H22.0056V4.07513C21.1906 4.07513 20.18 4.07513 18.7455 4.07513C15.7503 4.07513 13.8553 6.42323 13.8553 9.78034V12.2254H10.5952V16.3006H13.8553V26.0809H17.9305Z" fill="#055F4F"/>
</svg>
