<svg width="50" height="51" viewBox="0 0 50 51" fill="none" xmlns="http://www.w3.org/2000/svg">
<path fill-rule="evenodd" clip-rule="evenodd" d="M42.3802 7.71381C37.729 3.05731 31.5437 0.491805 24.9536 0.489105C11.3751 0.489105 0.323602 11.5397 0.318302 25.1224C0.316402 29.4644 1.4508 33.7024 3.6067 37.4383L0.111702 50.204L13.1712 46.7783C16.7694 48.7409 20.8207 49.7754 24.9438 49.7768H24.9538C24.953 49.7768 24.9546 49.7768 24.9538 49.7768C38.5309 49.7768 49.5833 38.7251 49.589 25.1421C49.5914 18.5595 47.0313 12.3701 42.3802 7.71381ZM24.9537 45.6163H24.9454C21.2714 45.6149 17.6677 44.6277 14.5239 42.7622L13.7763 42.3185L6.0266 44.3513L8.0952 36.7955L7.6083 36.0207C5.5587 32.7607 4.4762 28.9927 4.4778 25.1238C4.4822 13.8344 13.6678 4.64981 24.962 4.64981C30.431 4.65151 35.5721 6.7842 39.438 10.6545C43.3038 14.5248 45.4316 19.6693 45.4294 25.1404C45.4248 36.4307 36.2395 45.6163 24.9537 45.6163Z" fill="white"/>
<path fill-rule="evenodd" clip-rule="evenodd" d="M36.1851 30.281C35.5696 29.9729 32.5432 28.484 31.979 28.2784C31.4148 28.073 31.0044 27.9703 30.5941 28.5865C30.1838 29.2026 29.0041 30.5892 28.645 31.0001C28.286 31.4107 27.9268 31.4624 27.3114 31.154C26.6959 30.8459 24.7125 30.196 22.3614 28.0989C20.5314 26.4666 19.2961 24.451 18.9369 23.8346C18.5779 23.2185 18.8987 22.8854 19.2069 22.5784C19.4838 22.3025 19.8225 21.8595 20.1303 21.5C20.438 21.1407 20.5406 20.8837 20.7458 20.4732C20.951 20.0623 20.8485 19.7028 20.6945 19.3948C20.5406 19.0867 19.3096 16.0569 18.7967 14.8242C18.2969 13.6241 17.7895 13.7867 17.4116 13.7676C17.0531 13.7497 16.6422 13.746 16.2319 13.746C15.8216 13.746 15.1546 13.9001 14.5905 14.5162C14.0263 15.1325 12.436 16.6218 12.436 19.6513C12.436 22.6812 14.6417 25.6082 14.9495 26.0189C15.2572 26.4299 19.29 32.6471 25.4648 35.3134C26.9334 35.9477 28.08 36.3264 28.9739 36.61C30.4485 37.0786 31.7904 37.0124 32.851 36.8539C34.0337 36.6772 36.4929 35.3649 37.0058 33.9272C37.5188 32.4892 37.5188 31.2566 37.3648 31C37.211 30.7433 36.8006 30.5892 36.1851 30.281Z" fill="white"/>
</svg>
